<svg id="Laag_1" data-name="Laag 1" xmlns="http://www.w3.org/2000/svg" xmlns:xlink="http://www.w3.org/1999/xlink" viewBox="0 0 514.35 705.88"><defs><style>.cls-1{fill:none;}.cls-2{clip-path:url(#clip-path);}.cls-3{fill:#fff;}.cls-4{fill:#969231;}.cls-5{clip-path:url(#clip-path-2);}.cls-6{fill:#161616;}</style><clipPath id="clip-path"><rect class="cls-1" x="4.5" width="509.85" height="705.88"/></clipPath><clipPath id="clip-path-2"><path class="cls-1" d="M424.31,385.39C375.57,497.85,244.7,549,132,499.66s-164.54-180.52-115.8-293S195.81,43.06,308.51,92.41,473,272.93,424.31,385.39Z"/></clipPath></defs><title>user_img_setting</title><g class="cls-2"><path class="cls-3" d="M381.78,543.52a289.42,289.42,0,0,0,77.56-77.59c90.43-133.4,55.23-315.44-78.62-406.61S65.05,2.4-25.38,135.79a290.12,290.12,0,0,0-43.4,100.86c-41,143.54-42.74,351.52-4.7,432.38A56,56,0,0,0-51.9,697.5a55.81,55.81,0,0,0,34.36,9.62C71.47,712.8,263.74,634.59,381.78,543.52Z"/><path class="cls-4" d="M369.6,534.26A273.2,273.2,0,0,0,442.81,461C528.17,335.1,494.95,163.26,368.6,77.2s-298-53.73-383.33,72.19a273.86,273.86,0,0,0-41,95.2c-38.7,135.5-40.35,331.82-4.44,408.15a52.88,52.88,0,0,0,20.37,26.88,52.68,52.68,0,0,0,32.43,9.09C76.68,694.06,258.17,620.23,369.6,534.26Z"/><g class="cls-5"><path class="cls-6" d="M424.31,385.39C375.57,497.85,244.7,549,132,499.66s-164.54-180.52-115.8-293S195.81,43.06,308.51,92.41,473,272.93,424.31,385.39Z"/></g></g></svg>